<?xml version="1.0" encoding="utf-8"?>
<!-- Generator: Adobe Illustrator 27.5.0, SVG Export Plug-In . SVG Version: 6.00 Build 0)  -->
<svg version="1.1" id="Слой_1" xmlns="http://www.w3.org/2000/svg" xmlns:xlink="http://www.w3.org/1999/xlink" x="0px" y="0px"
	 width="1607px" height="869px" viewBox="0 0 1607 869" style="enable-background:new 0 0 1607 869;" xml:space="preserve">
<style type="text/css">
	.st0{fill:#FFFFFF;}
	.st1{fill:none;stroke:#D8D8D8;}
	.st2{fill:none;stroke:#C0D0E0;}
	.st3{fill:#707070;}
	.st4{font-family:'ArialMT';}
	.st5{font-size:12px;}
	.st6{clip-path:url(#SVGID_00000078754368686832583190000000060239176298617268_);}
	.st7{fill:#DDE0E5;stroke:#FFFFFF;}
	.st8{clip-path:url(#SVGID_00000080195192181086617400000018271989954509554876_);}
	.st9{fill:#E9873A;stroke:#FFFFFF;}
	.st10{clip-path:url(#SVGID_00000043441247189821231460000004575990918401611701_);}
	.st11{fill:#F8B789;stroke:#FFFFFF;}
	.st12{clip-path:url(#SVGID_00000079480770839130937590000001553835981650942855_);}
	.st13{fill:#AAD0EF;stroke:#FFFFFF;}
	.st14{clip-path:url(#SVGID_00000110462960182870121190000000222650880540246434_);}
	.st15{fill:#71B1E4;stroke:#FFFFFF;}
	.st16{clip-path:url(#SVGID_00000089560768299224984390000007073055051041189022_);}
	.st17{fill:#488CC7;stroke:#FFFFFF;}
	.st18{font-family:'Arial-BoldMT';}
	.st19{font-size:11px;}
	.st20{opacity:0;}
	.st21{fill:#333333;}
	.st22{fill:#488CC7;}
	.st23{fill:#71B1E4;}
	.st24{fill:#AAD0EF;}
	.st25{fill:#F8B789;}
	.st26{fill:#E9873A;}
	.st27{fill:#DDE0E5;}
	.st28{fill:#606060;}
	.st29{fill:none;stroke:#000000;stroke-width:5;stroke-opacity:5.000000e-02;}
	.st30{fill:none;stroke:#000000;stroke-width:3;stroke-opacity:0.1;}
	.st31{fill:none;stroke:#000000;stroke-opacity:0.15;}
	.st32{fill:#F9F9F9;fill-opacity:0.85;}
</style>
<rect class="st0" width="1607" height="869"/>
<g>
	<path class="st1" d="M138,155.5h1230 M138,155.5h1230"/>
	<path class="st1" d="M138,415.5h1230 M138,415.5h1230"/>
	<path class="st1" d="M138,676.5h1230 M138,676.5h1230"/>
</g>
<g>
	<path class="st1" d="M137.5,20v791"/>
	<path class="st1" d="M196.5,20v791"/>
	<path class="st1" d="M254.5,20v791"/>
	<path class="st1" d="M313.5,20v791"/>
	<path class="st1" d="M371.5,20v791"/>
	<path class="st1" d="M430.5,20v791"/>
	<path class="st1" d="M488.5,20v791"/>
	<path class="st1" d="M547.5,20v791"/>
	<path class="st1" d="M606.5,20v791"/>
	<path class="st1" d="M664.5,20v791"/>
	<path class="st1" d="M723.5,20v791"/>
	<path class="st1" d="M781.5,20v791"/>
	<path class="st1" d="M840.5,20v791"/>
	<path class="st1" d="M898.5,20v791"/>
	<path class="st1" d="M957.5,20v791"/>
	<path class="st1" d="M1016.5,20v791"/>
	<path class="st1" d="M1074.5,20v791"/>
	<path class="st1" d="M1133.5,20v791"/>
	<path class="st1" d="M1191.5,20v791"/>
	<path class="st1" d="M1250.5,20v791"/>
	<path class="st1" d="M1308.5,20v791"/>
	<path class="st1" d="M1368.5,20v791"/>
</g>
<g>
	<path class="st2" d="M138,155.5h-10"/>
	<path class="st2" d="M138,415.5h-10"/>
	<path class="st2" d="M138,676.5h-10"/>
	<path class="st2" d="M137.5,20v791"/>
</g>
<g>
	<text transform="matrix(1 0 0 1 658.4102 853)" class="st3 st4 st5">great, very good, good, average, unsatisfaction, curent</text>
</g>
<g>
	<g>
		<defs>
			<rect id="SVGID_1_" x="138" y="20" width="1230" height="791"/>
		</defs>
		<clipPath id="SVGID_00000071533034474256534660000003530111966312757657_">
			<use xlink:href="#SVGID_1_"  style="overflow:visible;"/>
		</clipPath>
		
			<g transform="translate(1368,811) rotate(90) scale(-1,1) scale(1 1)" style="clip-path:url(#SVGID_00000071533034474256534660000003530111966312757657_);">
			
				<rect x="43.5" y="941.5" transform="matrix(-2.535182e-06 -1 1 -2.535182e-06 -483.999 1274.0022)" class="st7" width="703" height="-125"/>
			
				<rect x="-275" y="883" transform="matrix(-2.535182e-06 -1 1 -2.535182e-06 -685.4996 955.5021)" class="st7" width="820" height="-125"/>
		</g>
	</g>
	<g transform="translate(1368,811) rotate(90) scale(-1,1) scale(1 1)">
	</g>
	<g>
		<defs>
			<rect id="SVGID_00000158748092195748384070000006558931038592802439_" x="138" y="20" width="1230" height="791"/>
		</defs>
		<clipPath id="SVGID_00000102520017652352618480000011985875442117254590_">
			<use xlink:href="#SVGID_00000158748092195748384070000006558931038592802439_"  style="overflow:visible;"/>
		</clipPath>
		
			<g transform="translate(1368,811) rotate(90) scale(-1,1) scale(1 1)" style="clip-path:url(#SVGID_00000102520017652352618480000011985875442117254590_);">
			
				<rect x="303.5" y="941.5" transform="matrix(-2.535182e-06 -1 1 -2.535182e-06 -223.9983 1534.0022)" class="st9" width="703" height="-125"/>
			<polygon class="st9" points="332.5,527.5 457.5,527.5 457.5,527.5 			"/>
			<polygon class="st9" points="72.5,410.5 197.5,410.5 197.5,410.5 			"/>
		</g>
	</g>
	<g transform="translate(1368,811) rotate(90) scale(-1,1) scale(1 1)">
	</g>
	<g>
		<defs>
			<rect id="SVGID_00000058562415874318968230000017320175090186469308_" x="138" y="20" width="1230" height="791"/>
		</defs>
		<clipPath id="SVGID_00000167370112434878543160000002876163439646104450_">
			<use xlink:href="#SVGID_00000058562415874318968230000017320175090186469308_"  style="overflow:visible;"/>
		</clipPath>
		
			<g transform="translate(1368,811) rotate(90) scale(-1,1) scale(1 1)" style="clip-path:url(#SVGID_00000167370112434878543160000002876163439646104450_);">
			
				<rect x="596.5" y="531.5" transform="matrix(-2.535182e-06 -1 1 -2.535182e-06 186.0017 1124.0012)" class="st11" width="117" height="-125"/>
			<polygon class="st11" points="332.5,527.5 457.5,527.5 457.5,527.5 			"/>
			<polygon class="st11" points="72.5,410.5 197.5,410.5 197.5,410.5 			"/>
		</g>
	</g>
	<g transform="translate(1368,811) rotate(90) scale(-1,1) scale(1 1)">
	</g>
	<g>
		<defs>
			<rect id="SVGID_00000151516397391204421460000014199055563515088283_" x="138" y="20" width="1230" height="791"/>
		</defs>
		<clipPath id="SVGID_00000093881663127318927680000006257112260871862961_">
			<use xlink:href="#SVGID_00000151516397391204421460000014199055563515088283_"  style="overflow:visible;"/>
		</clipPath>
		
			<g transform="translate(1368,811) rotate(90) scale(-1,1) scale(1 1)" style="clip-path:url(#SVGID_00000093881663127318927680000006257112260871862961_);">
			
				<rect x="596.5" y="414.5" transform="matrix(-2.535182e-06 -1 1 -2.535182e-06 303.0016 1007.0009)" class="st13" width="117" height="-125"/>
			<polygon class="st13" points="332.5,527.5 457.5,527.5 457.5,527.5 			"/>
			<polygon class="st13" points="72.5,410.5 197.5,410.5 197.5,410.5 			"/>
		</g>
	</g>
	<g transform="translate(1368,811) rotate(90) scale(-1,1) scale(1 1)">
	</g>
	<g>
		<defs>
			<rect id="SVGID_00000039852163069355772720000016041645793710703504_" x="138" y="20" width="1230" height="791"/>
		</defs>
		<clipPath id="SVGID_00000109716083530279299570000015786454189543483026_">
			<use xlink:href="#SVGID_00000039852163069355772720000016041645793710703504_"  style="overflow:visible;"/>
		</clipPath>
		
			<g transform="translate(1368,811) rotate(90) scale(-1,1) scale(1 1)" style="clip-path:url(#SVGID_00000109716083530279299570000015786454189543483026_);">
			
				<rect x="596.5" y="297.5" transform="matrix(-2.535182e-06 -1 1 -2.535182e-06 420.0016 890.0006)" class="st15" width="117" height="-125"/>
			<polygon class="st15" points="332.5,527.5 457.5,527.5 457.5,527.5 			"/>
			<polygon class="st15" points="72.5,410.5 197.5,410.5 197.5,410.5 			"/>
		</g>
	</g>
	<g transform="translate(1368,811) rotate(90) scale(-1,1) scale(1 1)">
	</g>
	<g>
		<defs>
			<rect id="SVGID_00000056422013895540045590000013044017456364756109_" x="138" y="20" width="1230" height="791"/>
		</defs>
		<clipPath id="SVGID_00000152974866830889538250000008793250570772031371_">
			<use xlink:href="#SVGID_00000056422013895540045590000013044017456364756109_"  style="overflow:visible;"/>
		</clipPath>
		
			<g transform="translate(1368,811) rotate(90) scale(-1,1) scale(1 1)" style="clip-path:url(#SVGID_00000152974866830889538250000008793250570772031371_);">
			
				<rect x="596.5" y="180.5" transform="matrix(-2.535182e-06 -1 1 -2.535182e-06 537.0016 773.0003)" class="st17" width="117" height="-125"/>
			<polygon class="st17" points="332.5,527.5 457.5,527.5 457.5,527.5 			"/>
			<polygon class="st17" points="72.5,410.5 197.5,410.5 197.5,410.5 			"/>
		</g>
	</g>
	<g transform="translate(1368,811) rotate(90) scale(-1,1) scale(1 1)">
	</g>
</g>
<g transform="translate(138,20) scale(1 1)">
	<g transform="translate(1094,123)">
		<text transform="matrix(1 0 0 1 5 16)" class="st18 st19">0,10</text>
	</g>
	<g transform="translate(698,391)">
	</g>
	<g transform="translate(815,651)">
	</g>
</g>
<g transform="translate(138,20) scale(1 1)">
	<g transform="translate(977,123)">
		<text transform="matrix(1 0 0 1 5 16)" class="st18 st19">0,10</text>
	</g>
	<g transform="translate(698,391)" class="st20">
	</g>
	<g transform="translate(815,651)" class="st20">
	</g>
</g>
<g transform="translate(138,20) scale(1 1)">
	<g transform="translate(860,123)">
		<text transform="matrix(1 0 0 1 5 16)" class="st18 st19">0,10</text>
	</g>
	<g transform="translate(698,391)" class="st20">
	</g>
	<g transform="translate(815,651)" class="st20">
	</g>
</g>
<g transform="translate(138,20) scale(1 1)">
	<g transform="translate(743,123)">
		<text transform="matrix(1 0 0 1 5 16)" class="st18 st19">0,10</text>
	</g>
	<g transform="translate(698,391)" class="st20">
	</g>
	<g transform="translate(815,651)" class="st20">
	</g>
</g>
<g transform="translate(138,20) scale(1 1)">
	<g transform="translate(333,123)">
		<text transform="matrix(1 0 0 1 5 16)" class="st18 st19">0,60</text>
	</g>
	<g transform="translate(698,391)" class="st20">
	</g>
	<g transform="translate(815,651)" class="st20">
	</g>
</g>
<g transform="translate(138,20) scale(1 1)">
	<g transform="translate(0,-9999)">
	</g>
	<g transform="translate(333,383)">
		<text transform="matrix(1 0 0 1 5 16)" class="st18 st19">0,60</text>
	</g>
	<g transform="translate(392,643)">
		<text transform="matrix(1 0 0 1 5 16)" class="st18 st19">0,70</text>
	</g>
</g>
<g transform="translate(1376,380)">
	<g>
		<g>
			<g transform="translate(8,3)">
				<text transform="matrix(1 0 0 1 21 15)" class="st21 st18 st5">great</text>
				<rect y="4" class="st22" width="16" height="12"/>
			</g>
			<g transform="translate(8,21)">
				<text transform="matrix(1 0 0 1 21 15)" class="st21 st18 st5">very good</text>
				<rect y="4" class="st23" width="16" height="12"/>
			</g>
			<g transform="translate(8,39)">
				<text transform="matrix(1 0 0 1 21 15)" class="st21 st18 st5">good</text>
				<rect y="4" class="st24" width="16" height="12"/>
			</g>
			<g transform="translate(8,57)">
				<text transform="matrix(1 0 0 1 21 15)" class="st21 st18 st5">average</text>
				<rect y="4" class="st25" width="16" height="12"/>
			</g>
			<g transform="translate(8,75)">
				<text transform="matrix(1 0 0 1 21 15)" class="st21 st18 st5">unsatisfaction</text>
				<rect y="4" class="st26" width="16" height="12"/>
			</g>
			<g transform="translate(8,93)">
				<text transform="matrix(1 0 0 1 21 15)" class="st21 st18 st5">curent</text>
				<rect y="4" class="st27" width="16" height="12"/>
			</g>
		</g>
	</g>
</g>
<g>
	<text transform="matrix(1 0 0 1 99.7754 158)" class="st28 st4 st19">AUC</text>
	<text transform="matrix(1 0 0 1 44.5283 418)" class="st28 st4 st19">Training dataset</text>
	<text transform="matrix(1 0 0 1 49.0078 678)" class="st28 st4 st19">Testing dataset</text>
</g>
<g>
	<text transform="matrix(1 0 0 1 131.8823 830)" class="st28 st4 st19">0</text>
	<text transform="matrix(1 0 0 1 175.1622 830)" class="st28 st4 st19">0,05</text>
	<text transform="matrix(1 0 0 1 239.8513 830)" class="st28 st4 st19">0,1</text>
	<text transform="matrix(1 0 0 1 292.3051 830)" class="st28 st4 st19">0,15</text>
	<text transform="matrix(1 0 0 1 356.9942 830)" class="st28 st4 st19">0,2</text>
	<text transform="matrix(1 0 0 1 409.448 830)" class="st28 st4 st19">0,25</text>
	<text transform="matrix(1 0 0 1 474.1371 830)" class="st28 st4 st19">0,3</text>
	<text transform="matrix(1 0 0 1 526.5908 830)" class="st28 st4 st19">0,35</text>
	<text transform="matrix(1 0 0 1 591.2799 830)" class="st28 st4 st19">0,4</text>
	<text transform="matrix(1 0 0 1 643.7337 830)" class="st28 st4 st19">0,45</text>
	<text transform="matrix(1 0 0 1 708.4228 830)" class="st28 st4 st19">0,5</text>
	<text transform="matrix(1 0 0 1 760.8765 830)" class="st28 st4 st19">0,55</text>
	<text transform="matrix(1 0 0 1 825.5656 830)" class="st28 st4 st19">0,6</text>
	<text transform="matrix(1 0 0 1 878.0194 830)" class="st28 st4 st19">0,65</text>
	<text transform="matrix(1 0 0 1 942.7085 830)" class="st28 st4 st19">0,7</text>
	<text transform="matrix(1 0 0 1 995.1622 830)" class="st28 st4 st19">0,75</text>
	<text transform="matrix(1 0 0 1 1059.8513 830)" class="st28 st4 st19">0,8</text>
	<text transform="matrix(1 0 0 1 1112.3051 830)" class="st28 st4 st19">0,85</text>
	<text transform="matrix(1 0 0 1 1176.9943 830)" class="st28 st4 st19">0,9</text>
	<text transform="matrix(1 0 0 1 1229.448 830)" class="st28 st4 st19">0,95</text>
	<text transform="matrix(1 0 0 1 1303.3109 830)" class="st28 st4 st19">1</text>
	<text transform="matrix(1 0 0 1 1346.5908 830)" class="st28 st4 st19">1,05</text>
</g>
<g transform="translate(0,-9999)">
	<path class="st29" d="M4.5,1.5h10c3,0,3,0,3,3v10c0,3,0,3-3,3h-10c-3,0-3,0-3-3v-10C1.5,1.5,1.5,1.5,4.5,1.5"/>
	<path class="st30" d="M4.5,1.5h10c3,0,3,0,3,3v10c0,3,0,3-3,3h-10c-3,0-3,0-3-3v-10C1.5,1.5,1.5,1.5,4.5,1.5"/>
	<path class="st31" d="M4.5,1.5h10c3,0,3,0,3,3v10c0,3,0,3-3,3h-10c-3,0-3,0-3-3v-10C1.5,1.5,1.5,1.5,4.5,1.5"/>
	<path class="st32" d="M3.5,0.5h10c3,0,3,0,3,3v10c0,3,0,3-3,3h-10c-3,0-3,0-3-3v-10C0.5,0.5,0.5,0.5,3.5,0.5"/>
</g>
</svg>
