<?xml version="1.0" encoding="UTF-8"?>
<svg width="1920px" height="1080px" viewBox="0 0 1920 1080" version="1.1" xmlns="http://www.w3.org/2000/svg" xmlns:xlink="http://www.w3.org/1999/xlink">
    <title>silver-kit</title>
    <defs>
        <polygon id="path-1" points="16.5 0 33 11.6666667 29.7 11.6666667 29.7 25 21.45 25 21.45 16.6666667 11.55 16.6666667 11.55 25 3.3 25 3.3 11.6666667 0 11.6666667"></polygon>
        <filter x="-3.0%" y="-4.0%" width="106.1%" height="108.0%" filterUnits="objectBoundingBox" id="filter-2">
            <feGaussianBlur stdDeviation="0.5" in="SourceAlpha" result="shadowBlurInner1"></feGaussianBlur>
            <feOffset dx="1" dy="1" in="shadowBlurInner1" result="shadowOffsetInner1"></feOffset>
            <feComposite in="shadowOffsetInner1" in2="SourceAlpha" operator="arithmetic" k2="-1" k3="1" result="shadowInnerInner1"></feComposite>
            <feColorMatrix values="0 0 0 0 0   0 0 0 0 0   0 0 0 0 0  0 0 0 0.05 0" type="matrix" in="shadowInnerInner1"></feColorMatrix>
        </filter>
        <filter color-interpolation-filters="auto" id="filter-3">
            <feColorMatrix in="SourceGraphic" type="matrix" values="0 0 0 0 0.968627 0 0 0 0 0.576471 0 0 0 0 0.117647 0 0 0 1.000000 0"></feColorMatrix>
        </filter>
        <filter color-interpolation-filters="auto" id="filter-4">
            <feColorMatrix in="SourceGraphic" type="matrix" values="0 0 0 0 0.968627 0 0 0 0 0.576471 0 0 0 0 0.117647 0 0 0 1.000000 0"></feColorMatrix>
        </filter>
        <filter color-interpolation-filters="auto" id="filter-5">
            <feColorMatrix in="SourceGraphic" type="matrix" values="0 0 0 0 0.968627 0 0 0 0 0.576471 0 0 0 0 0.117647 0 0 0 1.000000 0"></feColorMatrix>
        </filter>
        <filter color-interpolation-filters="auto" id="filter-6">
            <feColorMatrix in="SourceGraphic" type="matrix" values="0 0 0 0 0.968627 0 0 0 0 0.576471 0 0 0 0 0.117647 0 0 0 1.000000 0"></feColorMatrix>
        </filter>
        <filter color-interpolation-filters="auto" id="filter-7">
            <feColorMatrix in="SourceGraphic" type="matrix" values="0 0 0 0 0.968627 0 0 0 0 0.576471 0 0 0 0 0.117647 0 0 0 1.000000 0"></feColorMatrix>
        </filter>
        <filter color-interpolation-filters="auto" id="filter-8">
            <feColorMatrix in="SourceGraphic" type="matrix" values="0 0 0 0 0.968627 0 0 0 0 0.576471 0 0 0 0 0.117647 0 0 0 1.000000 0"></feColorMatrix>
        </filter>
    </defs>
    <g id="silver-kit" stroke="none" stroke-width="1" fill="none" fill-rule="evenodd">
        <rect fill="#FFFFFF" x="0" y="0" width="1920" height="1080"></rect>
        <g id="trees-icon-label" transform="translate(469.000000, 308.500000)">
            <path d="M150.6,52.0642857 L154.4,36.2242857 C154.84,34.1442857 155.24,32.3442857 155.64,30.0642857 L155.8,30.0642857 C156.16,32.3442857 156.48,34.1442857 156.96,36.2242857 L160.84,52.0642857 L165,52.0642857 L170.48,25.8242857 L167.24,25.8242857 L164.44,40.1042857 C163.96,42.9442857 163.48,45.7442857 163.04,48.7042857 L162.88,48.7042857 C162.32,45.7442857 161.64,42.9042857 161,40.1042857 L157.44,25.8242857 L154.12,25.8242857 L150.48,40.1042857 C149.84,42.9442857 149.24,45.7442857 148.72,48.7042857 L148.56,48.7042857 C148.08,45.7442857 147.64,42.9442857 147.12,40.1042857 L144.4,25.8242857 L140.92,25.8242857 L146.48,52.0642857 L150.6,52.0642857 Z M182.28,52.5442857 C187.04,52.5442857 191.32,48.8242857 191.32,42.3842857 C191.32,35.8642857 187.04,32.1442857 182.28,32.1442857 C177.52,32.1442857 173.28,35.8642857 173.28,42.3842857 C173.28,48.8242857 177.52,52.5442857 182.28,52.5442857 Z M182.28,49.7842857 C178.96,49.7842857 176.72,46.8242857 176.72,42.3842857 C176.72,37.9042857 178.96,34.9042857 182.28,34.9042857 C185.64,34.9042857 187.88,37.9042857 187.88,42.3842857 C187.88,46.8242857 185.64,49.7842857 182.28,49.7842857 Z M199.72,52.0642857 L199.72,39.5842857 C201.04,36.3042857 203,35.1442857 204.64,35.1442857 C205.4,35.1442857 205.84,35.2242857 206.4,35.3842857 L207.12,32.5442857 C206.52,32.2642857 205.92,32.1442857 205.04,32.1442857 C202.88,32.1442857 200.88,33.7042857 199.52,36.1442857 L199.4,36.1442857 L199.12,32.6242857 L196.4,32.6242857 L196.4,52.0642857 L199.72,52.0642857 Z M213.6,52.0642857 L213.6,46.9442857 L217.2,42.7442857 L222.88,52.0642857 L226.48,52.0642857 L219.16,40.4642857 L225.64,32.6242857 L221.92,32.6242857 L213.72,42.7842857 L213.6,42.7842857 L213.6,23.5842857 L210.32,23.5842857 L210.32,52.0642857 L213.6,52.0642857 Z M231.8,28.6242857 C233.08,28.6242857 234,27.7842857 234,26.4642857 C234,25.1842857 233.08,24.3042857 231.8,24.3042857 C230.52,24.3042857 229.6,25.1842857 229.6,26.4642857 C229.6,27.7842857 230.52,28.6242857 231.8,28.6242857 Z M233.44,52.0642857 L233.44,32.6242857 L230.12,32.6242857 L230.12,52.0642857 L233.44,52.0642857 Z M243.32,52.0642857 L243.32,37.9842857 C245.24,36.0242857 246.64,35.0242857 248.6,35.0242857 C251.16,35.0242857 252.28,36.5442857 252.28,40.1842857 L252.28,52.0642857 L255.6,52.0642857 L255.6,39.7442857 C255.6,34.7842857 253.76,32.1442857 249.64,32.1442857 C246.96,32.1442857 244.96,33.5842857 243.12,35.4242857 L243,35.4242857 L242.72,32.6242857 L240,32.6242857 L240,52.0642857 L243.32,52.0642857 Z M268.44,61.0242857 C274.48,61.0242857 278.28,57.9042857 278.28,54.2642857 C278.28,51.0642857 276,49.6242857 271.48,49.6242857 L267.72,49.6242857 C265.12,49.6242857 264.32,48.7442857 264.32,47.5442857 C264.32,46.4642857 264.84,45.8242857 265.56,45.2242857 C266.44,45.6642857 267.48,45.9042857 268.44,45.9042857 C272.4,45.9042857 275.56,43.3042857 275.56,39.1442857 C275.56,37.5042857 274.92,36.0642857 274,35.1842857 L277.96,35.1842857 L277.96,32.6242857 L271.2,32.6242857 C270.48,32.3442857 269.52,32.1442857 268.44,32.1442857 C264.48,32.1442857 261.12,34.8242857 261.12,39.0642857 C261.12,41.3842857 262.36,43.2642857 263.64,44.3042857 L263.64,44.4642857 C262.64,45.1442857 261.52,46.4242857 261.52,48.0642857 C261.52,49.5842857 262.28,50.6242857 263.24,51.2242857 L263.24,51.3842857 C261.48,52.5842857 260.4,54.1442857 260.4,55.7842857 C260.4,59.1442857 263.68,61.0242857 268.44,61.0242857 Z M268.44,43.6642857 C266.2,43.6642857 264.32,41.9042857 264.32,39.0642857 C264.32,36.2242857 266.16,34.5442857 268.44,34.5442857 C270.72,34.5442857 272.56,36.2642857 272.56,39.0642857 C272.56,41.9042857 270.68,43.6642857 268.44,43.6642857 Z M268.92,58.7042857 C265.4,58.7042857 263.28,57.4242857 263.28,55.3442857 C263.28,54.2242857 263.88,53.0642857 265.28,52.0642857 C266.12,52.3042857 267.04,52.3842857 267.8,52.3842857 L271.12,52.3842857 C273.68,52.3842857 275.04,52.9842857 275.04,54.7842857 C275.04,56.7842857 272.6,58.7042857 268.92,58.7042857 Z M296.72,52.5442857 C299,52.5442857 301.08,51.2642857 302.6,49.7842857 L302.72,49.7842857 L303,52.0642857 L305.72,52.0642857 L305.72,23.5842857 L302.4,23.5842857 L302.4,31.0642857 L302.56,34.3842857 C300.84,32.9842857 299.36,32.1442857 297.12,32.1442857 C292.68,32.1442857 288.68,36.0642857 288.68,42.3842857 C288.68,48.8642857 291.84,52.5442857 296.72,52.5442857 Z M297.44,49.7442857 C294.04,49.7442857 292.12,46.9842857 292.12,42.3442857 C292.12,37.9042857 294.6,34.9442857 297.68,34.9442857 C299.28,34.9442857 300.76,35.4642857 302.4,36.9442857 L302.4,47.1042857 C300.8,48.8642857 299.24,49.7442857 297.44,49.7442857 Z M313.96,28.6242857 C315.24,28.6242857 316.16,27.7842857 316.16,26.4642857 C316.16,25.1842857 315.24,24.3042857 313.96,24.3042857 C312.68,24.3042857 311.76,25.1842857 311.76,26.4642857 C311.76,27.7842857 312.68,28.6242857 313.96,28.6242857 Z M315.6,52.0642857 L315.6,32.6242857 L312.28,32.6242857 L312.28,52.0642857 L315.6,52.0642857 Z M325.48,52.0642857 L325.48,39.5842857 C326.8,36.3042857 328.76,35.1442857 330.4,35.1442857 C331.16,35.1442857 331.6,35.2242857 332.16,35.3842857 L332.88,32.5442857 C332.28,32.2642857 331.68,32.1442857 330.8,32.1442857 C328.64,32.1442857 326.64,33.7042857 325.28,36.1442857 L325.16,36.1442857 L324.88,32.6242857 L322.16,32.6242857 L322.16,52.0642857 L325.48,52.0642857 Z M343.92,52.5442857 C346.6,52.5442857 348.68,51.7442857 350.36,50.5442857 L349.2,48.4242857 C347.84,49.3442857 346.2,49.8642857 344.32,49.8642857 C340.64,49.8642857 338.2,47.2242857 337.92,43.2242857 L351,43.2242857 C351.12,42.5842857 351.16,41.9842857 351.16,41.2642857 C351.16,35.6642857 348.32,32.1442857 343.36,32.1442857 C338.92,32.1442857 334.64,36.0242857 334.64,42.3442857 C334.64,48.7842857 338.72,52.5442857 343.92,52.5442857 Z M348.2,40.6642857 L337.92,40.6642857 C338.32,36.9442857 340.72,34.7842857 343.44,34.7842857 C346.4,34.7842857 348.2,36.8242857 348.2,40.6642857 Z M363.6,52.5442857 C365.92,52.5442857 368.12,51.6642857 369.88,50.0642857 L368.44,47.9442857 C367.28,48.9842857 365.68,49.7842857 363.88,49.7842857 C360.32,49.7842857 357.92,46.8242857 357.92,42.3842857 C357.92,37.9042857 360.48,34.9042857 364,34.9042857 C365.56,34.9042857 366.8,35.5042857 367.88,36.5042857 L369.52,34.4242857 C368.16,33.1442857 366.4,32.1442857 363.84,32.1442857 C358.84,32.1442857 354.48,35.8642857 354.48,42.3842857 C354.48,48.8242857 358.44,52.5442857 363.6,52.5442857 Z M380.28,52.5442857 C381.6,52.5442857 382.92,52.1842857 383.96,51.7042857 L383.28,49.3442857 C382.48,49.7042857 381.76,49.8242857 381.04,49.8242857 C378.84,49.8242857 378.04,48.4642857 378.04,46.1042857 L378.04,35.3042857 L383.32,35.3042857 L383.32,32.6242857 L378.04,32.6242857 L378.04,26.3842857 L375.28,26.3842857 L374.88,32.6242857 L371.84,32.8242857 L371.84,35.3042857 L374.72,35.3042857 L374.72,46.0242857 C374.72,49.9042857 376.12,52.5442857 380.28,52.5442857 Z M395.28,52.5442857 C400.04,52.5442857 404.32,48.8242857 404.32,42.3842857 C404.32,35.8642857 400.04,32.1442857 395.28,32.1442857 C390.52,32.1442857 386.28,35.8642857 386.28,42.3842857 C386.28,48.8242857 390.52,52.5442857 395.28,52.5442857 Z M395.28,49.7842857 C391.96,49.7842857 389.72,46.8242857 389.72,42.3842857 C389.72,37.9042857 391.96,34.9042857 395.28,34.9042857 C398.64,34.9042857 400.88,37.9042857 400.88,42.3842857 C400.88,46.8242857 398.64,49.7842857 395.28,49.7842857 Z M412.72,52.0642857 L412.72,39.5842857 C414.04,36.3042857 416,35.1442857 417.64,35.1442857 C418.4,35.1442857 418.84,35.2242857 419.4,35.3842857 L420.12,32.5442857 C419.52,32.2642857 418.92,32.1442857 418.04,32.1442857 C415.88,32.1442857 413.88,33.7042857 412.52,36.1442857 L412.4,36.1442857 L412.12,32.6242857 L409.4,32.6242857 L409.4,52.0642857 L412.72,52.0642857 Z M423.68,60.4242857 C427.56,60.4242857 429.6,57.5042857 430.96,53.6642857 L438.28,32.6242857 L435.04,32.6242857 L431.56,43.3442857 C431.04,45.0642857 430.48,47.0642857 429.96,48.8242857 L429.8,48.8242857 C429.16,47.0242857 428.52,45.0242857 427.88,43.3442857 L423.96,32.6242857 L420.52,32.6242857 L428.32,52.1042857 L427.88,53.5442857 C427.08,55.9442857 425.68,57.6642857 423.52,57.6642857 C423.04,57.6642857 422.56,57.5842857 422.08,57.4242857 L421.36,60.0242857 C422,60.2642857 422.76,60.4242857 423.68,60.4242857 Z" id="Workingdirectory" fill="#333333" fill-rule="nonzero"></path>
            <g id="folder">
                <path d="M39.1952339,1.36598157 L43.8047661,6.63401843 C44.5643185,7.50207827 45.6616226,8 46.8150729,8 L92,8 C94.209139,8 96,9.790861 96,12 L96,70 L96,70 L4,70 C1.790861,70 -3.72626139e-15,68.209139 0,66 L0,4 C-2.705415e-16,1.790861 1.790861,2.18216909e-15 4,0 L36.1849271,0 C37.3383774,-1.10006381e-15 38.4356815,0.497921729 39.1952339,1.36598157 Z" id="Path" fill="#FCA65C"></path>
                <path d="M58.1952339,14.3659816 L62.8047661,19.6340184 C63.5643185,20.5020783 64.6616226,21 65.8150729,21 L96.1538462,21 C98.3629852,21 100.153846,22.790861 100.153846,25 L100.153846,70 L100.153846,70 L12,70 C9.790861,70 8,68.209139 8,66 L8,17 C8,14.790861 9.790861,13 12,13 L55.1849271,13 C56.3383774,13 57.4356815,13.4979217 58.1952339,14.3659816 Z" id="Path" fill="#73B0DE" transform="translate(54.076923, 41.500000) scale(-1, 1) translate(-54.076923, -41.500000) "></path>
                <path d="M9,58 L9,70 L4,70 L4.19964034,69.9951047 C6.31603153,69.8910789 8,68.1421954 8,66 L8,66 L8,58 L9,58 Z" id="Combined-Shape" fill="#73B0DE"></path>
                <g id="Path" transform="translate(37.000000, 29.000000)">
                    <use fill="#61A2D3" fill-rule="evenodd" xlink:href="#path-1"></use>
                    <use fill="black" fill-opacity="1" filter="url(#filter-2)" xlink:href="#path-1"></use>
                </g>
            </g>
        </g>
        <g id="trees-icon-label" transform="translate(631.000000, 439.500000)">
            <path d="M146.76,52.5442857 C147.6,52.5442857 148.2,52.4242857 148.68,52.1842857 L148.24,49.7042857 C147.92,49.7842857 147.76,49.7842857 147.56,49.7842857 C147.04,49.7842857 146.6,49.4242857 146.6,48.3842857 L146.6,23.5842857 L143.28,23.5842857 L143.28,48.1442857 C143.28,50.9442857 144.28,52.5442857 146.76,52.5442857 Z M155.16,28.6242857 C156.44,28.6242857 157.36,27.7842857 157.36,26.4642857 C157.36,25.1842857 156.44,24.3042857 155.16,24.3042857 C153.88,24.3042857 152.96,25.1842857 152.96,26.4642857 C152.96,27.7842857 153.88,28.6242857 155.16,28.6242857 Z M156.8,52.0642857 L156.8,32.6242857 L153.48,32.6242857 L153.48,52.0642857 L156.8,52.0642857 Z M171.96,52.5442857 C176.4,52.5442857 180.4,48.6642857 180.4,42.0242857 C180.4,36.0242857 177.68,32.1442857 172.68,32.1442857 C170.52,32.1442857 168.36,33.3042857 166.56,34.8242857 L166.68,31.3442857 L166.68,23.5842857 L163.36,23.5842857 L163.36,52.0642857 L166,52.0642857 L166.32,50.0642857 L166.44,50.0642857 C168.16,51.6242857 170.16,52.5442857 171.96,52.5442857 Z M171.4,49.7442857 C170.12,49.7442857 168.36,49.2242857 166.68,47.7442857 L166.68,37.5842857 C168.52,35.8242857 170.2,34.9442857 171.84,34.9442857 C175.48,34.9442857 176.96,37.7842857 176.96,42.0642857 C176.96,46.8642857 174.6,49.7442857 171.4,49.7442857 Z M190.6,52.5442857 C195.2,52.5442857 197.72,49.9042857 197.72,46.7442857 C197.72,43.2242857 194.8,41.9042857 191.76,40.8242857 C189.32,39.9842857 187.64,39.2642857 187.64,37.5042857 C187.64,36.0642857 188.72,34.7042857 191.2,34.7042857 C192.92,34.7042857 194.32,35.2642857 195.68,36.2642857 L197.2,34.3442857 C195.68,33.0642857 193.6,32.1442857 191.16,32.1442857 C186.92,32.1442857 184.44,34.5442857 184.44,37.6642857 C184.44,40.8642857 187.24,42.2642857 190.16,43.3042857 L190.598839,43.4651509 C192.6384,44.2214413 194.52,45.077619 194.52,46.9442857 C194.52,48.6242857 193.28,49.9442857 190.72,49.9442857 C188.32,49.9442857 186.56,49.2242857 184.88,47.8242857 L183.36,49.7442857 C185.16,51.5042857 187.76,52.5442857 190.6,52.5442857 Z" id="libs" fill="#333333" fill-rule="nonzero"></path>
            <g id="folder">
                <path d="M39.1952339,1.36598157 L43.8047661,6.63401843 C44.5643185,7.50207827 45.6616226,8 46.8150729,8 L92,8 C94.209139,8 96,9.790861 96,12 L96,70 L96,70 L4,70 C1.790861,70 -3.72626139e-15,68.209139 0,66 L0,4 C-2.705415e-16,1.790861 1.790861,2.18216909e-15 4,0 L36.1849271,0 C37.3383774,-1.10006381e-15 38.4356815,0.497921729 39.1952339,1.36598157 Z" id="Path" fill="#FCA65C"></path>
                <path d="M58.1952339,14.3659816 L62.8047661,19.6340184 C63.5643185,20.5020783 64.6616226,21 65.8150729,21 L96.1538462,21 C98.3629852,21 100.153846,22.790861 100.153846,25 L100.153846,70 L100.153846,70 L12,70 C9.790861,70 8,68.209139 8,66 L8,17 C8,14.790861 9.790861,13 12,13 L55.1849271,13 C56.3383774,13 57.4356815,13.4979217 58.1952339,14.3659816 Z" id="Path" fill="#73B0DE" transform="translate(54.076923, 41.500000) scale(-1, 1) translate(-54.076923, -41.500000) "></path>
                <path d="M9,58 L9,70 L4,70 L4.19964034,69.9951047 C6.31603153,69.8910789 8,68.1421954 8,66 L8,66 L8,58 L9,58 Z" id="Combined-Shape" fill="#73B0DE"></path>
            </g>
        </g>
        <g id="trees-icon-label" transform="translate(793.000000, 570.500000)">
            <path d="M148.36,52.5442857 C152.96,52.5442857 155.48,49.9042857 155.48,46.7442857 C155.48,43.2242857 152.56,41.9042857 149.52,40.8242857 C147.08,39.9842857 145.4,39.2642857 145.4,37.5042857 C145.4,36.0642857 146.48,34.7042857 148.96,34.7042857 C150.68,34.7042857 152.08,35.2642857 153.44,36.2642857 L154.96,34.3442857 C153.44,33.0642857 151.36,32.1442857 148.92,32.1442857 C144.68,32.1442857 142.2,34.5442857 142.2,37.6642857 C142.2,40.8642857 145,42.2642857 147.92,43.3042857 L148.358839,43.4651509 C150.3984,44.2214413 152.28,45.077619 152.28,46.9442857 C152.28,48.6242857 151.04,49.9442857 148.48,49.9442857 C146.08,49.9442857 144.32,49.2242857 142.64,47.8242857 L141.12,49.7442857 C142.92,51.5042857 145.52,52.5442857 148.36,52.5442857 Z M166.16,52.5442857 C167.48,52.5442857 168.8,52.1842857 169.84,51.7042857 L169.16,49.3442857 C168.36,49.7042857 167.64,49.8242857 166.92,49.8242857 C164.72,49.8242857 163.92,48.4642857 163.92,46.1042857 L163.92,35.3042857 L169.2,35.3042857 L169.2,32.6242857 L163.92,32.6242857 L163.92,26.3842857 L161.16,26.3842857 L160.76,32.6242857 L157.72,32.8242857 L157.72,35.3042857 L160.6,35.3042857 L160.6,46.0242857 C160.6,49.9042857 162,52.5442857 166.16,52.5442857 Z M178.08,52.5442857 C180.52,52.5442857 182.64,51.3042857 184.48,49.7442857 L184.6,49.7442857 L184.92,52.0642857 L187.64,52.0642857 L187.64,40.1042857 C187.64,35.3042857 185.6,32.1442857 180.88,32.1442857 C177.76,32.1442857 175.04,33.4642857 173.24,34.6642857 L174.52,36.9042857 C176.04,35.9042857 178.08,34.9042857 180.32,34.9042857 C183.48,34.9042857 184.28,37.2642857 184.32,39.7042857 C176,40.6242857 172.4,42.7042857 172.4,47.0242857 C172.4,50.5442857 174.84,52.5442857 178.08,52.5442857 Z M179,49.8242857 C177.12,49.8242857 175.64,48.9842857 175.64,46.8242857 C175.64,44.3042857 177.76,42.8242857 184.32,42.0642857 L184.32,47.3442857 C182.44,48.9842857 180.88,49.8242857 179,49.8242857 Z M197.08,52.0642857 L197.08,39.5842857 C198.4,36.3042857 200.36,35.1442857 202,35.1442857 C202.76,35.1442857 203.2,35.2242857 203.76,35.3842857 L204.48,32.5442857 C203.88,32.2642857 203.28,32.1442857 202.4,32.1442857 C200.24,32.1442857 198.24,33.7042857 196.88,36.1442857 L196.76,36.1442857 L196.48,32.6242857 L193.76,32.6242857 L193.76,52.0642857 L197.08,52.0642857 Z M213.8,52.5442857 C215.12,52.5442857 216.44,52.1842857 217.48,51.7042857 L216.8,49.3442857 C216,49.7042857 215.28,49.8242857 214.56,49.8242857 C212.36,49.8242857 211.56,48.4642857 211.56,46.1042857 L211.56,35.3042857 L216.84,35.3042857 L216.84,32.6242857 L211.56,32.6242857 L211.56,26.3842857 L208.8,26.3842857 L208.4,32.6242857 L205.36,32.8242857 L205.36,35.3042857 L208.24,35.3042857 L208.24,46.0242857 C208.24,49.9042857 209.64,52.5442857 213.8,52.5442857 Z M229.08,52.5442857 C231.76,52.5442857 233.84,51.7442857 235.52,50.5442857 L234.36,48.4242857 C233,49.3442857 231.36,49.8642857 229.48,49.8642857 C225.8,49.8642857 223.36,47.2242857 223.08,43.2242857 L236.16,43.2242857 C236.28,42.5842857 236.32,41.9842857 236.32,41.2642857 C236.32,35.6642857 233.48,32.1442857 228.52,32.1442857 C224.08,32.1442857 219.8,36.0242857 219.8,42.3442857 C219.8,48.7842857 223.88,52.5442857 229.08,52.5442857 Z M233.36,40.6642857 L223.08,40.6642857 C223.48,36.9442857 225.88,34.7842857 228.6,34.7842857 C231.56,34.7842857 233.36,36.8242857 233.36,40.6642857 Z M244.4,52.0642857 L244.4,39.5842857 C245.72,36.3042857 247.68,35.1442857 249.32,35.1442857 C250.08,35.1442857 250.52,35.2242857 251.08,35.3842857 L251.8,32.5442857 C251.2,32.2642857 250.6,32.1442857 249.72,32.1442857 C247.56,32.1442857 245.56,33.7042857 244.2,36.1442857 L244.08,36.1442857 L243.8,32.6242857 L241.08,32.6242857 L241.08,52.0642857 L244.4,52.0642857 Z M271.24,57.1042857 L271.24,54.9042857 L252.2,54.9042857 L252.2,57.1042857 L271.24,57.1042857 Z M278.28,52.0642857 L278.28,46.9442857 L281.88,42.7442857 L287.56,52.0642857 L291.16,52.0642857 L283.84,40.4642857 L290.32,32.6242857 L286.6,32.6242857 L278.4,42.7842857 L278.28,42.7842857 L278.28,23.5842857 L275,23.5842857 L275,52.0642857 L278.28,52.0642857 Z M296.48,28.6242857 C297.76,28.6242857 298.68,27.7842857 298.68,26.4642857 C298.68,25.1842857 297.76,24.3042857 296.48,24.3042857 C295.2,24.3042857 294.28,25.1842857 294.28,26.4642857 C294.28,27.7842857 295.2,28.6242857 296.48,28.6242857 Z M298.12,52.0642857 L298.12,32.6242857 L294.8,32.6242857 L294.8,52.0642857 L298.12,52.0642857 Z M310.8,52.5442857 C312.12,52.5442857 313.44,52.1842857 314.48,51.7042857 L313.8,49.3442857 C313,49.7042857 312.28,49.8242857 311.56,49.8242857 C309.36,49.8242857 308.56,48.4642857 308.56,46.1042857 L308.56,35.3042857 L313.84,35.3042857 L313.84,32.6242857 L308.56,32.6242857 L308.56,26.3842857 L305.8,26.3842857 L305.4,32.6242857 L302.36,32.8242857 L302.36,35.3042857 L305.24,35.3042857 L305.24,46.0242857 C305.24,49.9042857 306.64,52.5442857 310.8,52.5442857 Z" id="starter_kit" fill="#333333" fill-rule="nonzero"></path>
            <g id="folder">
                <path d="M39.1952339,1.36598157 L43.8047661,6.63401843 C44.5643185,7.50207827 45.6616226,8 46.8150729,8 L92,8 C94.209139,8 96,9.790861 96,12 L96,70 L96,70 L4,70 C1.790861,70 -3.72626139e-15,68.209139 0,66 L0,4 C-2.705415e-16,1.790861 1.790861,2.18216909e-15 4,0 L36.1849271,0 C37.3383774,-1.10006381e-15 38.4356815,0.497921729 39.1952339,1.36598157 Z" id="Path" fill="#FCA65C"></path>
                <path d="M58.1952339,14.3659816 L62.8047661,19.6340184 C63.5643185,20.5020783 64.6616226,21 65.8150729,21 L96.1538462,21 C98.3629852,21 100.153846,22.790861 100.153846,25 L100.153846,70 L100.153846,70 L12,70 C9.790861,70 8,68.209139 8,66 L8,17 C8,14.790861 9.790861,13 12,13 L55.1849271,13 C56.3383774,13 57.4356815,13.4979217 58.1952339,14.3659816 Z" id="Path" fill="#73B0DE" transform="translate(54.076923, 41.500000) scale(-1, 1) translate(-54.076923, -41.500000) "></path>
                <path d="M9,58 L9,70 L4,70 L4.19964034,69.9951047 C6.31603153,69.8910789 8,68.1421954 8,66 L8,66 L8,58 L9,58 Z" id="Combined-Shape" fill="#73B0DE"></path>
            </g>
        </g>
        <g id="trees-icon-label" transform="translate(955.000000, 701.000000)">
            <path d="M130.6,52 L130.6,37.92 C132.4,35.92 134,34.96 135.44,34.96 C137.92,34.96 139.04,36.48 139.04,40.12 L139.04,52 L142.36,52 L142.36,37.92 C144.16,35.92 145.72,34.96 147.24,34.96 C149.68,34.96 150.84,36.48 150.84,40.12 L150.84,52 L154.16,52 L154.16,39.68 C154.16,34.72 152.24,32.08 148.24,32.08 C145.88,32.08 143.84,33.6 141.84,35.76 C141.04,33.48 139.44,32.08 136.44,32.08 C134.12,32.08 132.12,33.52 130.4,35.36 L130.28,35.36 L130,32.56 L127.28,32.56 L127.28,52 L130.6,52 Z M168.28,52.48 C170.96,52.48 173.04,51.68 174.72,50.48 L173.56,48.36 C172.2,49.28 170.56,49.8 168.68,49.8 C165,49.8 162.56,47.16 162.28,43.16 L175.36,43.16 C175.48,42.52 175.52,41.92 175.52,41.2 C175.52,35.6 172.68,32.08 167.72,32.08 C163.28,32.08 159,35.96 159,42.28 C159,48.72 163.08,52.48 168.28,52.48 Z M172.56,40.6 L162.28,40.6 C162.68,36.88 165.08,34.72 167.8,34.72 C170.76,34.72 172.56,36.76 172.56,40.6 Z M186.84,60.96 C192.88,60.96 196.68,57.84 196.68,54.2 C196.68,51 194.4,49.56 189.88,49.56 L186.12,49.56 C183.52,49.56 182.72,48.68 182.72,47.48 C182.72,46.4 183.24,45.76 183.96,45.16 C184.84,45.6 185.88,45.84 186.84,45.84 C190.8,45.84 193.96,43.24 193.96,39.08 C193.96,37.44 193.32,36 192.4,35.12 L196.36,35.12 L196.36,32.56 L189.6,32.56 C188.88,32.28 187.92,32.08 186.84,32.08 C182.88,32.08 179.52,34.76 179.52,39 C179.52,41.32 180.76,43.2 182.04,44.24 L182.04,44.4 C181.04,45.08 179.92,46.36 179.92,48 C179.92,49.52 180.68,50.56 181.64,51.16 L181.64,51.32 C179.88,52.52 178.8,54.08 178.8,55.72 C178.8,59.08 182.08,60.96 186.84,60.96 Z M186.84,43.6 C184.6,43.6 182.72,41.84 182.72,39 C182.72,36.16 184.56,34.48 186.84,34.48 C189.12,34.48 190.96,36.2 190.96,39 C190.96,41.84 189.08,43.6 186.84,43.6 Z M187.32,58.64 C183.8,58.64 181.68,57.36 181.68,55.28 C181.68,54.16 182.28,53 183.68,52 C184.52,52.24 185.44,52.32 186.2,52.32 L189.52,52.32 C192.08,52.32 193.44,52.92 193.44,54.72 C193.44,56.72 191,58.64 187.32,58.64 Z M204.96,52.48 C207.4,52.48 209.52,51.24 211.36,49.68 L211.48,49.68 L211.8,52 L214.52,52 L214.52,40.04 C214.52,35.24 212.48,32.08 207.76,32.08 C204.64,32.08 201.92,33.4 200.12,34.6 L201.4,36.84 C202.92,35.84 204.96,34.84 207.2,34.84 C210.36,34.84 211.16,37.2 211.2,39.64 C202.88,40.56 199.28,42.64 199.28,46.96 C199.28,50.48 201.72,52.48 204.96,52.48 Z M205.88,49.76 C204,49.76 202.52,48.92 202.52,46.76 C202.52,44.24 204.64,42.76 211.2,42 L211.2,47.28 C209.32,48.92 207.76,49.76 205.88,49.76 Z M224.12,52.48 C224.96,52.48 225.56,52.36 226.04,52.12 L225.6,49.64 C225.28,49.72 225.12,49.72 224.92,49.72 C224.4,49.72 223.96,49.36 223.96,48.32 L223.96,23.52 L220.64,23.52 L220.64,48.08 C220.64,50.88 221.64,52.48 224.12,52.48 Z M235.32,52.48 C237.76,52.48 239.88,51.24 241.72,49.68 L241.84,49.68 L242.16,52 L244.88,52 L244.88,40.04 C244.88,35.24 242.84,32.08 238.12,32.08 C235,32.08 232.28,33.4 230.48,34.6 L231.76,36.84 C233.28,35.84 235.32,34.84 237.56,34.84 C240.72,34.84 241.52,37.2 241.56,39.64 C233.24,40.56 229.64,42.64 229.64,46.96 C229.64,50.48 232.08,52.48 235.32,52.48 Z M236.24,49.76 C234.36,49.76 232.88,48.92 232.88,46.76 C232.88,44.24 235,42.76 241.56,42 L241.56,47.28 C239.68,48.92 238.12,49.76 236.24,49.76 Z M257.64,52.48 C259.92,52.48 262,51.2 263.52,49.72 L263.64,49.72 L263.92,52 L266.64,52 L266.64,23.52 L263.32,23.52 L263.32,31 L263.48,34.32 C261.76,32.92 260.28,32.08 258.04,32.08 C253.6,32.08 249.6,36 249.6,42.32 C249.6,48.8 252.76,52.48 257.64,52.48 Z M258.36,49.68 C254.96,49.68 253.04,46.92 253.04,42.28 C253.04,37.84 255.52,34.88 258.6,34.88 C260.2,34.88 261.68,35.4 263.32,36.88 L263.32,47.04 C261.72,48.8 260.16,49.68 258.36,49.68 Z M277.68,52.48 C280.12,52.48 282.24,51.24 284.08,49.68 L284.2,49.68 L284.52,52 L287.24,52 L287.24,40.04 C287.24,35.24 285.2,32.08 280.48,32.08 C277.36,32.08 274.64,33.4 272.84,34.6 L274.12,36.84 C275.64,35.84 277.68,34.84 279.92,34.84 C283.08,34.84 283.88,37.2 283.92,39.64 C275.6,40.56 272,42.64 272,46.96 C272,50.48 274.44,52.48 277.68,52.48 Z M278.6,49.76 C276.72,49.76 275.24,48.92 275.24,46.76 C275.24,44.24 277.36,42.76 283.92,42 L283.92,47.28 C282.04,48.92 280.48,49.76 278.6,49.76 Z M299.48,52.48 C300.8,52.48 302.12,52.12 303.16,51.64 L302.48,49.28 C301.68,49.64 300.96,49.76 300.24,49.76 C298.04,49.76 297.24,48.4 297.24,46.04 L297.24,35.24 L302.52,35.24 L302.52,32.56 L297.24,32.56 L297.24,26.32 L294.48,26.32 L294.08,32.56 L291.04,32.76 L291.04,35.24 L293.92,35.24 L293.92,45.96 C293.92,49.84 295.32,52.48 299.48,52.48 Z M311.4,52.48 C313.84,52.48 315.96,51.24 317.8,49.68 L317.92,49.68 L318.24,52 L320.96,52 L320.96,40.04 C320.96,35.24 318.92,32.08 314.2,32.08 C311.08,32.08 308.36,33.4 306.56,34.6 L307.84,36.84 C309.36,35.84 311.4,34.84 313.64,34.84 C316.8,34.84 317.6,37.2 317.64,39.64 C309.32,40.56 305.72,42.64 305.72,46.96 C305.72,50.48 308.16,52.48 311.4,52.48 Z M312.32,49.76 C310.44,49.76 308.96,48.92 308.96,46.76 C308.96,44.24 311.08,42.76 317.64,42 L317.64,47.28 C315.76,48.92 314.2,49.76 312.32,49.76 Z M334.64,43.24 L334.64,40.68 L325.44,40.68 L325.44,43.24 L334.64,43.24 Z M344.6,52.48 C349.2,52.48 351.72,49.84 351.72,46.68 C351.72,43.16 348.8,41.84 345.76,40.76 C343.32,39.92 341.64,39.2 341.64,37.44 C341.64,36 342.72,34.64 345.2,34.64 C346.92,34.64 348.32,35.2 349.68,36.2 L351.2,34.28 C349.68,33 347.6,32.08 345.16,32.08 C340.92,32.08 338.44,34.48 338.44,37.6 C338.44,40.8 341.24,42.2 344.16,43.24 C346.36,44.04 348.52,44.88 348.52,46.88 C348.52,48.56 347.28,49.88 344.72,49.88 C342.32,49.88 340.56,49.16 338.88,47.76 L337.36,49.68 C339.16,51.44 341.76,52.48 344.6,52.48 Z M362.4,52.48 C363.72,52.48 365.04,52.12 366.08,51.64 L365.4,49.28 C364.6,49.64 363.88,49.76 363.16,49.76 C360.96,49.76 360.16,48.4 360.16,46.04 L360.16,35.24 L365.44,35.24 L365.44,32.56 L360.16,32.56 L360.16,26.32 L357.4,26.32 L357,32.56 L353.96,32.76 L353.96,35.24 L356.84,35.24 L356.84,45.96 C356.84,49.84 358.24,52.48 362.4,52.48 Z M374.32,52.48 C376.76,52.48 378.88,51.24 380.72,49.68 L380.84,49.68 L381.16,52 L383.88,52 L383.88,40.04 C383.88,35.24 381.84,32.08 377.12,32.08 C374,32.08 371.28,33.4 369.48,34.6 L370.76,36.84 C372.28,35.84 374.32,34.84 376.56,34.84 C379.72,34.84 380.52,37.2 380.56,39.64 C372.24,40.56 368.64,42.64 368.64,46.96 C368.64,50.48 371.08,52.48 374.32,52.48 Z M375.24,49.76 C373.36,49.76 371.88,48.92 371.88,46.76 C371.88,44.24 374,42.76 380.56,42 L380.56,47.28 C378.68,48.92 377.12,49.76 375.24,49.76 Z M393.32,52 L393.32,39.52 C394.64,36.24 396.6,35.08 398.24,35.08 C399,35.08 399.44,35.16 400,35.32 L400.72,32.48 C400.12,32.2 399.52,32.08 398.64,32.08 C396.48,32.08 394.48,33.64 393.12,36.08 L393,36.08 L392.72,32.56 L390,32.56 L390,52 L393.32,52 Z M410.04,52.48 C411.36,52.48 412.68,52.12 413.72,51.64 L413.04,49.28 C412.24,49.64 411.52,49.76 410.8,49.76 C408.6,49.76 407.8,48.4 407.8,46.04 L407.8,35.24 L413.08,35.24 L413.08,32.56 L407.8,32.56 L407.8,26.32 L405.04,26.32 L404.64,32.56 L401.6,32.76 L401.6,35.24 L404.48,35.24 L404.48,45.96 C404.48,49.84 405.88,52.48 410.04,52.48 Z M425.32,52.48 C428,52.48 430.08,51.68 431.76,50.48 L430.6,48.36 C429.24,49.28 427.6,49.8 425.72,49.8 C422.04,49.8 419.6,47.16 419.32,43.16 L432.4,43.16 C432.52,42.52 432.56,41.92 432.56,41.2 C432.56,35.6 429.72,32.08 424.76,32.08 C420.32,32.08 416.04,35.96 416.04,42.28 C416.04,48.72 420.12,52.48 425.32,52.48 Z M429.6,40.6 L419.32,40.6 C419.72,36.88 422.12,34.72 424.84,34.72 C427.8,34.72 429.6,36.76 429.6,40.6 Z M440.64,52 L440.64,39.52 C441.96,36.24 443.92,35.08 445.56,35.08 C446.32,35.08 446.76,35.16 447.32,35.32 L448.04,32.48 C447.44,32.2 446.84,32.08 445.96,32.08 C443.8,32.08 441.8,33.64 440.44,36.08 L440.32,36.08 L440.04,32.56 L437.32,32.56 L437.32,52 L440.64,52 Z M458.8,43.24 L458.8,40.68 L449.6,40.68 L449.6,43.24 L458.8,43.24 Z M466.96,52 L466.96,46.88 L470.56,42.68 L476.24,52 L479.84,52 L472.52,40.4 L479,32.56 L475.28,32.56 L467.08,42.72 L466.96,42.72 L466.96,23.52 L463.68,23.52 L463.68,52 L466.96,52 Z M485.16,28.56 C486.44,28.56 487.36,27.72 487.36,26.4 C487.36,25.12 486.44,24.24 485.16,24.24 C483.88,24.24 482.96,25.12 482.96,26.4 C482.96,27.72 483.88,28.56 485.16,28.56 Z M486.8,52 L486.8,32.56 L483.48,32.56 L483.48,52 L486.8,52 Z M499.48,52.48 C500.8,52.48 502.12,52.12 503.16,51.64 L502.48,49.28 C501.68,49.64 500.96,49.76 500.24,49.76 C498.04,49.76 497.24,48.4 497.24,46.04 L497.24,35.24 L502.52,35.24 L502.52,32.56 L497.24,32.56 L497.24,26.32 L494.48,26.32 L494.08,32.56 L491.04,32.76 L491.04,35.24 L493.92,35.24 L493.92,45.96 C493.92,49.84 495.32,52.48 499.48,52.48 Z M508.64,52.48 C509.96,52.48 511.04,51.44 511.04,49.96 C511.04,48.44 509.96,47.4 508.64,47.4 C507.32,47.4 506.24,48.44 506.24,49.96 C506.24,51.44 507.32,52.48 508.64,52.48 Z M520.24,52 L520.24,37.92 C522.04,35.92 523.64,34.96 525.08,34.96 C527.56,34.96 528.68,36.48 528.68,40.12 L528.68,52 L532,52 L532,37.92 C533.8,35.92 535.36,34.96 536.88,34.96 C539.32,34.96 540.48,36.48 540.48,40.12 L540.48,52 L543.8,52 L543.8,39.68 C543.8,34.72 541.88,32.08 537.88,32.08 C535.52,32.08 533.48,33.6 531.48,35.76 C530.68,33.48 529.08,32.08 526.08,32.08 C523.76,32.08 521.76,33.52 520.04,35.36 L519.92,35.36 L519.64,32.56 L516.92,32.56 L516.92,52 L520.24,52 Z M556.64,60.96 C562.68,60.96 566.48,57.84 566.48,54.2 C566.48,51 564.2,49.56 559.68,49.56 L555.92,49.56 C553.32,49.56 552.52,48.68 552.52,47.48 C552.52,46.4 553.04,45.76 553.76,45.16 C554.64,45.6 555.68,45.84 556.64,45.84 C560.6,45.84 563.76,43.24 563.76,39.08 C563.76,37.44 563.12,36 562.2,35.12 L566.16,35.12 L566.16,32.56 L559.4,32.56 C558.68,32.28 557.72,32.08 556.64,32.08 C552.68,32.08 549.32,34.76 549.32,39 C549.32,41.32 550.56,43.2 551.84,44.24 L551.84,44.4 C550.84,45.08 549.72,46.36 549.72,48 C549.72,49.52 550.48,50.56 551.44,51.16 L551.44,51.32 C549.68,52.52 548.6,54.08 548.6,55.72 C548.6,59.08 551.88,60.96 556.64,60.96 Z M556.64,43.6 C554.4,43.6 552.52,41.84 552.52,39 C552.52,36.16 554.36,34.48 556.64,34.48 C558.92,34.48 560.76,36.2 560.76,39 C560.76,41.84 558.88,43.6 556.64,43.6 Z M557.12,58.64 C553.6,58.64 551.48,57.36 551.48,55.28 C551.48,54.16 552.08,53 553.48,52 C554.32,52.24 555.24,52.32 556,52.32 L559.32,52.32 C561.88,52.32 563.24,52.92 563.24,54.72 C563.24,56.72 560.8,58.64 557.12,58.64 Z M573.6,60.2 L573.6,53.64 L573.52,50.24 C575.28,51.64 577.12,52.48 578.88,52.48 C583.32,52.48 587.32,48.6 587.32,42 C587.32,35.96 584.6,32.08 579.6,32.08 C577.36,32.08 575.16,33.32 573.4,34.8 L573.28,34.8 L573,32.56 L570.28,32.56 L570.28,60.2 L573.6,60.2 Z M578.32,49.68 C577.04,49.68 575.36,49.16 573.6,47.68 L573.6,37.52 C575.48,35.76 577.12,34.88 578.76,34.88 C582.4,34.88 583.88,37.72 583.88,42 C583.88,46.8 581.52,49.68 578.32,49.68 Z" id="megaladata-starter-kit.mgp" fill="#333333" fill-rule="nonzero"></path>
            <g id="Group">
                <path d="M64,0 C66.209139,-4.05812251e-16 68,1.790861 68,4 L68,66 C68,68.209139 66.209139,70 64,70 L60,70 C62.209139,70 64,68.209139 64,66 L64,66 L64,4 C64,1.790861 62.209139,-4.05812251e-16 60,0 L60,0 L64,0 Z" id="Combined-Shape" fill="#FCA65C"></path>
                <path d="M72,0 C74.209139,-4.05812251e-16 76,1.790861 76,4 L76,66 C76,68.209139 74.209139,70 72,70 L68,70 C70.209139,70 72,68.209139 72,66 L72,66 L72,4 C72,1.790861 70.209139,-4.05812251e-16 68,0 L68,0 L72,0 Z" id="Combined-Shape" fill="#FCA65C"></path>
                <path d="M80,0 C82.209139,-4.05812251e-16 84,1.790861 84,4 L84,66 C84,68.209139 82.209139,70 80,70 L76,70 C78.209139,70 80,68.209139 80,66 L80,66 L80,4 C80,1.790861 78.209139,-4.05812251e-16 76,0 L76,0 L80,0 Z" id="Combined-Shape" fill="#FCA65C"></path>
                <rect id="Rectangle" fill="#73B0DE" x="0" y="0" width="60" height="70" rx="4"></rect>
                <g transform="translate(12.000000, 22.000000)" fill="#F9F9F9" id="Rectangle">
                    <rect x="0" y="0" width="36" height="2" rx="1"></rect>
                    <rect x="0" y="6" width="36" height="2" rx="1"></rect>
                    <rect x="0" y="12" width="36" height="2" rx="1"></rect>
                    <rect x="0" y="18" width="36" height="2" rx="1"></rect>
                    <rect x="0" y="24" width="25" height="2" rx="1"></rect>
                </g>
            </g>
        </g>
        <g id="Arrow/Gray-Circle/L-Shape-Copy" transform="translate(559.000000, 438.500000) rotate(-180.000000) translate(-559.000000, -438.500000) translate(509.000000, 389.000000)">
            <path d="M16,10 L90,10 L90,83" id="Path-4" stroke="#9A9FAF" stroke-width="4" stroke-dasharray="6"></path>
            <g id="Start-point" transform="translate(80.000000, 79.000000)" filter="url(#filter-3)">
                <g transform="translate(10.000000, 10.000000) rotate(90.000000) translate(-10.000000, -10.000000) ">
                    <path d="M10,0 C15.5228475,0 20,4.4771525 20,10 C20,15.5228475 15.5228475,20 10,20 C4.4771525,20 0,15.5228475 0,10 C0,4.4771525 4.4771525,0 10,0 Z M10,6 C7.790861,6 6,7.790861 6,10 C6,12.209139 7.790861,14 10,14 C12.209139,14 14,12.209139 14,10 C14,7.790861 12.209139,6 10,6 Z" id="Shape" fill="#F7931E"></path>
                </g>
            </g>
            <g id="Start-point" transform="translate(0.000000, -0.000000)" filter="url(#filter-4)">
                <g transform="translate(10.000000, 10.000000) rotate(90.000000) translate(-10.000000, -10.000000) ">
                    <path d="M10,0 C15.5228475,0 20,4.4771525 20,10 C20,15.5228475 15.5228475,20 10,20 C4.4771525,20 0,15.5228475 0,10 C0,4.4771525 4.4771525,0 10,0 Z M10,6 C7.790861,6 6,7.790861 6,10 C6,12.209139 7.790861,14 10,14 C12.209139,14 14,12.209139 14,10 C14,7.790861 12.209139,6 10,6 Z" id="Shape" fill="#F7931E"></path>
                </g>
            </g>
        </g>
        <g id="Arrow/Gray-Circle/L-Shape-Copy" transform="translate(721.000000, 569.500000) rotate(-180.000000) translate(-721.000000, -569.500000) translate(671.000000, 520.000000)">
            <path d="M16,10 L90,10 L90,83" id="Path-4" stroke="#9A9FAF" stroke-width="4" stroke-dasharray="6"></path>
            <g id="Start-point" transform="translate(80.000000, 79.000000)" filter="url(#filter-5)">
                <g transform="translate(10.000000, 10.000000) rotate(90.000000) translate(-10.000000, -10.000000) ">
                    <path d="M10,0 C15.5228475,0 20,4.4771525 20,10 C20,15.5228475 15.5228475,20 10,20 C4.4771525,20 0,15.5228475 0,10 C0,4.4771525 4.4771525,0 10,0 Z M10,6 C7.790861,6 6,7.790861 6,10 C6,12.209139 7.790861,14 10,14 C12.209139,14 14,12.209139 14,10 C14,7.790861 12.209139,6 10,6 Z" id="Shape" fill="#F7931E"></path>
                </g>
            </g>
            <g id="Start-point" transform="translate(0.000000, -0.000000)" filter="url(#filter-6)">
                <g transform="translate(10.000000, 10.000000) rotate(90.000000) translate(-10.000000, -10.000000) ">
                    <path d="M10,0 C15.5228475,0 20,4.4771525 20,10 C20,15.5228475 15.5228475,20 10,20 C4.4771525,20 0,15.5228475 0,10 C0,4.4771525 4.4771525,0 10,0 Z M10,6 C7.790861,6 6,7.790861 6,10 C6,12.209139 7.790861,14 10,14 C12.209139,14 14,12.209139 14,10 C14,7.790861 12.209139,6 10,6 Z" id="Shape" fill="#F7931E"></path>
                </g>
            </g>
        </g>
        <g id="Arrow/Gray-Circle/L-Shape-Copy" transform="translate(883.000000, 698.000000) rotate(-180.000000) translate(-883.000000, -698.000000) translate(833.000000, 651.000000)">
            <path d="M16,10 L90,10 L90,78" id="Path-4" stroke="#9A9FAF" stroke-width="4" stroke-dasharray="6"></path>
            <g id="Start-point" transform="translate(80.000000, 74.000000)" filter="url(#filter-7)">
                <g transform="translate(10.000000, 10.000000) rotate(90.000000) translate(-10.000000, -10.000000) ">
                    <path d="M10,0 C15.5228475,0 20,4.4771525 20,10 C20,15.5228475 15.5228475,20 10,20 C4.4771525,20 0,15.5228475 0,10 C0,4.4771525 4.4771525,0 10,0 Z M10,6 C7.790861,6 6,7.790861 6,10 C6,12.209139 7.790861,14 10,14 C12.209139,14 14,12.209139 14,10 C14,7.790861 12.209139,6 10,6 Z" id="Shape" fill="#F7931E"></path>
                </g>
            </g>
            <g id="Start-point" transform="translate(0.000000, -0.000000)" filter="url(#filter-8)">
                <g transform="translate(10.000000, 10.000000) rotate(90.000000) translate(-10.000000, -10.000000) ">
                    <path d="M10,0 C15.5228475,0 20,4.4771525 20,10 C20,15.5228475 15.5228475,20 10,20 C4.4771525,20 0,15.5228475 0,10 C0,4.4771525 4.4771525,0 10,0 Z M10,6 C7.790861,6 6,7.790861 6,10 C6,12.209139 7.790861,14 10,14 C12.209139,14 14,12.209139 14,10 C14,7.790861 12.209139,6 10,6 Z" id="Shape" fill="#F7931E"></path>
                </g>
            </g>
        </g>
    </g>
</svg>